<svg id="visual" viewBox="0 0 900 450" width="900" height="450" xmlns="http://www.w3.org/2000/svg" xmlns:xlink="http://www.w3.org/1999/xlink" version="1.1"><path d="M0 113L21.5 121.8C43 130.7 86 148.3 128.8 150.3C171.7 152.3 214.3 138.7 257.2 138.8C300 139 343 153 385.8 162.8C428.7 172.7 471.3 178.3 514.2 170.3C557 162.3 600 140.7 642.8 134.7C685.7 128.7 728.3 138.3 771.2 146.2C814 154 857 160 878.5 163L900 166L900 0L878.5 0C857 0 814 0 771.2 0C728.3 0 685.7 0 642.8 0C600 0 557 0 514.2 0C471.3 0 428.7 0 385.8 0C343 0 300 0 257.2 0C214.3 0 171.7 0 128.8 0C86 0 43 0 21.5 0L0 0Z" fill="#ecdca9"></path><path d="M0 148L21.5 146.3C43 144.7 86 141.3 128.8 131.7C171.7 122 214.3 106 257.2 108.3C300 110.7 343 131.3 385.8 138.3C428.7 145.3 471.3 138.7 514.2 134.5C557 130.3 600 128.7 642.8 130.7C685.7 132.7 728.3 138.3 771.2 140C814 141.7 857 139.3 878.5 138.2L900 137L900 0L878.5 0C857 0 814 0 771.2 0C728.3 0 685.7 0 642.8 0C600 0 557 0 514.2 0C471.3 0 428.7 0 385.8 0C343 0 300 0 257.2 0C214.3 0 171.7 0 128.8 0C86 0 43 0 21.5 0L0 0Z" fill="#efe2bc"></path><path d="M0 111L21.5 105C43 99 86 87 128.8 80.3C171.7 73.7 214.3 72.3 257.2 71.2C300 70 343 69 385.8 75.3C428.7 81.7 471.3 95.3 514.2 100C557 104.7 600 100.3 642.8 96.7C685.7 93 728.3 90 771.2 90C814 90 857 93 878.5 94.5L900 96L900 0L878.5 0C857 0 814 0 771.2 0C728.3 0 685.7 0 642.8 0C600 0 557 0 514.2 0C471.3 0 428.7 0 385.8 0C343 0 300 0 257.2 0C214.3 0 171.7 0 128.8 0C86 0 43 0 21.5 0L0 0Z" fill="#f2e9cf"></path><path d="M0 76L21.5 71.7C43 67.3 86 58.7 128.8 60.7C171.7 62.7 214.3 75.3 257.2 78C300 80.7 343 73.3 385.8 71.3C428.7 69.3 471.3 72.7 514.2 70.5C557 68.3 600 60.7 642.8 57.7C685.7 54.7 728.3 56.3 771.2 56.2C814 56 857 54 878.5 53L900 52L900 0L878.5 0C857 0 814 0 771.2 0C728.3 0 685.7 0 642.8 0C600 0 557 0 514.2 0C471.3 0 428.7 0 385.8 0C343 0 300 0 257.2 0C214.3 0 171.7 0 128.8 0C86 0 43 0 21.5 0L0 0Z" fill="#f4efe2"></path><path d="M0 29L21.5 27.5C43 26 86 23 128.8 26C171.7 29 214.3 38 257.2 38.7C300 39.3 343 31.7 385.8 31.5C428.7 31.3 471.3 38.7 514.2 40.3C557 42 600 38 642.8 35.8C685.7 33.7 728.3 33.3 771.2 31C814 28.7 857 24.3 878.5 22.2L900 20L900 0L878.5 0C857 0 814 0 771.2 0C728.3 0 685.7 0 642.8 0C600 0 557 0 514.2 0C471.3 0 428.7 0 385.8 0C343 0 300 0 257.2 0C214.3 0 171.7 0 128.8 0C86 0 43 0 21.5 0L0 0Z" fill="#f6f6f6"></path></svg>